<?xml version="1.0" encoding="UTF-8"?>
<svg version="1.1" xmlns="http://www.w3.org/2000/svg" width="900" height="679">
<path d="M0 0 C297 0 594 0 900 0 C900 224.07 900 448.14 900 679 C603 679 306 679 0 679 C0 454.93 0 230.86 0 0 Z " fill="#F6F6F6" transform="translate(0,0)"/>
<path d="M0 0 C7.75742377 0.02532688 15.51480677 0.03107703 23.27226591 0.03505468 C30.77789259 0.03904668 38.28350191 0.05151124 45.78911591 0.06540155 C48.15952562 0.06945865 50.52993477 0.07240419 52.90034628 0.07519674 C56.62567794 0.0801401 60.35096121 0.09042578 64.07626867 0.10463476 C66.06509644 0.11119507 68.0539378 0.11314458 70.04277563 0.11487722 C99.60186213 0.25347898 99.60186213 0.25347898 109.00258398 8.64762259 C117.1880659 17.81047548 120.87423088 29.23915903 123.33388281 41.02408743 C123.75641485 43.04090803 124.21029151 45.04881705 124.66859961 47.05777884 C128.46715667 64.14015268 128.46715667 64.14015268 125.40492773 71.79996634 C122.12201283 76.73228239 117.61787429 80.742712 113.37758398 84.83512259 C108.2627766 89.81748256 103.3287874 94.74023013 98.81508398 100.27262259 C97.63953706 101.37128774 96.43332732 102.43869138 95.19008398 103.46012259 C91.72476096 106.4322782 88.39002879 109.5176424 85.12758398 112.71012259 C84.23684179 113.57508352 83.34609961 114.44004446 82.42836523 115.33121634 C75.59471649 123.02290169 73.7964671 129.50586494 72.56508398 139.71012259 C72.40016455 140.95116751 72.23524511 142.19221243 72.06532812 143.47086477 C71.18792132 150.31722237 70.54120074 157.12753643 70.25258398 164.02262259 C69.64477285 176.58818733 65.09677609 182.62596177 55.79945898 191.11246634 C54.51062692 192.22578671 53.21492792 193.33120344 51.91274023 194.42887259 C49.43373847 196.60780896 47.1327821 198.92307823 44.81508398 201.27262259 C41.29402075 204.83662561 37.6832239 208.17566426 33.87758398 211.42887259 C31.42583709 213.62058571 29.12622825 215.93329363 26.81508398 218.27262259 C23.91916441 221.2038045 21.01265827 224.03665433 17.87758398 226.71012259 C14.52583325 229.57434594 11.40951642 232.63595975 8.31508398 235.77262259 C4.6251381 239.51292597 0.840047 243.05501608 -3.15757227 246.46402884 C-6.50097772 249.44668149 -9.59567972 252.6761895 -12.74350977 255.86246634 C-15.45694329 258.54116791 -18.29268625 261.01870376 -21.18882227 263.49527884 C-23.44624228 265.50531035 -25.56227315 267.62095212 -27.68491602 269.77262259 C-30.37270062 272.49703798 -33.08308465 275.1052257 -35.99741602 277.58512259 C-39.57390366 280.64762397 -42.87882013 283.92541888 -46.18491602 287.27262259 C-50.07885299 291.21497655 -54.03654414 294.97245521 -58.25913477 298.56559134 C-61.30153296 301.26240272 -64.10817411 304.18796655 -66.96225977 307.08121634 C-69.60367707 309.68549596 -72.37678174 312.09185564 -75.19663477 314.49918509 C-78.12248153 317.10887944 -80.81776074 319.93100738 -83.52085352 322.76871634 C-85.18491602 324.27262259 -85.18491602 324.27262259 -87.18491602 324.27262259 C-87.30860559 323.61881109 -87.43229517 322.9649996 -87.55973291 322.29137564 C-93.95032171 288.52296481 -100.41768218 254.77174868 -107.08628321 221.05704641 C-107.32068613 219.87162252 -107.55508905 218.68619864 -107.7965951 217.46485281 C-108.25625875 215.1403575 -108.71618337 212.81591377 -109.17638636 210.49152517 C-110.32062477 204.69987894 -111.45031979 198.90584875 -112.55674219 193.1068511 C-112.77931192 191.94071783 -113.00188166 190.77458456 -113.23119593 189.57311392 C-113.64822018 187.38216544 -114.06336771 185.19085845 -114.47616053 182.99910879 C-118.56496409 158.29159058 -118.56496409 158.29159058 -132.97007227 138.76481009 C-140.25209673 133.8587548 -147.15980307 131.89414517 -155.78257227 130.76481009 C-156.73476145 130.63816977 -157.68695063 130.51152945 -158.66799402 130.38105154 C-170.15452428 128.92686524 -181.6889366 128.1408275 -193.23935938 127.39225149 C-196.95570116 127.15033799 -200.67084079 126.89402661 -204.38608789 126.63590384 C-237.72426278 124.37404566 -270.99823932 124.10808978 -304.39805079 124.14225149 C-310.01728424 124.14797268 -315.63647061 124.14454258 -321.2557025 124.1388154 C-354.23365763 124.08517085 -354.23365763 124.08517085 -387.18491602 125.27262259 C-388.03719782 125.31749807 -388.88947962 125.36237356 -389.76758814 125.40860891 C-395.13754341 125.69141841 -400.50516964 126.00525108 -405.87241602 126.33512259 C-408.12215649 126.47249461 -410.37193629 126.60897278 -412.62188196 126.74294424 C-414.61136389 126.86147485 -416.60066296 126.98306378 -418.58994532 127.10489798 C-422.12758296 127.26994769 -425.64401708 127.30195211 -429.18491602 127.27262259 C-425.71990125 124.35184231 -421.87279883 122.69187772 -417.73179102 120.96402884 C-416.98089701 120.64562536 -416.23000299 120.32722189 -415.45635462 119.99916983 C-412.95151677 118.93892748 -410.44330817 117.88692548 -407.93491602 116.83512259 C-406.15018185 116.08221712 -404.36559853 115.32895398 -402.58115625 114.57535696 C-396.78648059 112.13137275 -390.98632615 109.70057048 -385.18491602 107.27262259 C-384.20702112 106.86324453 -383.22912622 106.45386648 -382.22159815 106.03208303 C-368.16996847 100.15141192 -354.10614424 94.3002428 -340.03843164 88.45816946 C-336.45196872 86.96810581 -332.86645327 85.47577185 -329.28098536 83.98331594 C-289.10605576 67.26295739 -248.79285488 50.87958657 -208.44242334 34.58799124 C-205.45514239 33.38173893 -202.46799278 32.17516212 -199.48088789 30.96847391 C-191.75178548 27.846202 -184.02209767 24.72538319 -176.29194117 21.60572195 C-173.488423 20.47428514 -170.68506617 19.34244998 -167.88184595 18.21027517 C-164.56275449 16.86980692 -161.24326017 15.53034105 -157.92347002 14.19160414 C-156.10598353 13.45842056 -154.28888402 12.72427795 -152.47179651 11.99010611 C-134.80162535 4.86802855 -134.80162535 4.86802855 -126.43491602 4.27262259 C-125.53596613 4.20629629 -124.63701624 4.13997 -123.71082544 4.07163382 C-122.69825678 3.99713003 -121.68568811 3.92262625 -120.64243555 3.84586477 C-116.13779248 3.50999563 -111.63915616 3.1358494 -107.14090014 2.7233634 C-71.47708359 -0.49215347 -35.77051222 -0.1211312 0 0 Z " fill="#303030" transform="translate(606.1849160194397,40.72737741470337)"/>
<path d="M0 0 C1.09735474 0.16808167 2.19470947 0.33616333 3.32531738 0.50933838 C5.63866612 0.8655381 7.95144696 1.22544379 10.26367188 1.58886719 C13.74201018 2.13446995 17.22230616 2.66579417 20.703125 3.1953125 C30.7464201 4.7420072 40.75922784 6.35277014 50.6875 8.53125 C51.41062378 8.68881775 52.13374756 8.8463855 52.87878418 9.00872803 C56.25058632 9.7836085 59.27741609 10.65024748 62.28125 12.390625 C62.28125 13.050625 62.28125 13.710625 62.28125 14.390625 C61.35183594 14.803125 60.42242188 15.215625 59.46484375 15.640625 C49.61073883 20.16419181 43.12314239 24.09594038 39.02856445 34.64648438 C27.47560146 67.40692827 25.04253767 102.80880988 24.96875 137.203125 C24.96489288 138.31998688 24.96103577 139.43684875 24.95706177 140.58755493 C23.64384301 205.63557362 23.64384301 205.63557362 46.28125 263.390625 C51.85681085 268.05712702 57.8731439 271.97296841 64.28125 275.390625 C64.28125 275.720625 64.28125 276.050625 64.28125 276.390625 C49.80833213 277.70634481 34.424079 270.17523451 20.98681641 265.60180664 C14.95328187 263.55856192 8.92444571 261.72015084 2.76660156 260.0925293 C-0.15714067 259.26681624 -2.95715549 258.24298956 -5.78417969 257.13623047 C-7.84236164 256.34298366 -9.9170668 255.62848585 -12.0078125 254.92578125 C-13.07902344 254.56129883 -13.07902344 254.56129883 -14.171875 254.18945312 C-15.62562285 253.69659077 -17.0813914 253.20965084 -18.5390625 252.72851562 C-26.85874499 249.87239274 -31.67543584 246.23209934 -35.71875 238.390625 C-37.15723259 235.31520122 -38.40305732 232.1944947 -39.59375 229.015625 C-39.92963135 228.12584961 -40.2655127 227.23607422 -40.61157227 226.31933594 C-43.34110424 218.86386555 -45.57745841 211.30065043 -47.65625 203.640625 C-47.95063965 202.55861816 -48.2450293 201.47661133 -48.54833984 200.36181641 C-50.11931511 194.36041119 -51.11945445 188.55892425 -51.71875 182.390625 C-61.03175235 182.98710453 -70.34422537 183.59158128 -79.65625 184.203125 C-80.34962086 184.24865509 -81.04299171 184.29418518 -81.75737381 184.34109497 C-104.9770524 185.85921577 -104.9770524 185.85921577 -128.15625 187.890625 C-143.44589127 189.39055816 -158.76780182 190.41969055 -174.09538651 191.44015503 C-176.12498291 191.57603174 -178.15441128 191.71419381 -180.18380737 191.85302734 C-194.71026514 192.84014996 -209.15522673 193.71082377 -223.71875 193.390625 C-224.22088517 174.67257095 -223.5861822 155.7770857 -219.71875 137.390625 C-218.75453125 137.33003906 -217.7903125 137.26945313 -216.796875 137.20703125 C-215.53359375 137.12324219 -214.2703125 137.03945313 -212.96875 136.953125 C-211.71578125 136.87191406 -210.4628125 136.79070312 -209.171875 136.70703125 C-205.94305209 136.50099728 -205.94305209 136.50099728 -203.75491333 135.89593506 C-201.70556516 135.38735295 -199.79038648 135.15392957 -197.68701172 134.98925781 C-196.49353874 134.89316727 -196.49353874 134.89316727 -195.2759552 134.7951355 C-193.97533394 134.69544968 -193.97533394 134.69544968 -192.6484375 134.59375 C-191.72330856 134.51996124 -190.79817963 134.44617249 -189.84501648 134.37014771 C-187.82501745 134.20918256 -185.80490578 134.04962626 -183.78469849 133.89129639 C-178.28936644 133.45959951 -172.79514993 133.0140741 -167.30078125 132.5703125 C-165.55495003 132.42965866 -165.55495003 132.42965866 -163.77384949 132.28616333 C-150.89094049 131.24675059 -138.0102073 130.18269987 -125.13165283 129.09069824 C-122.57759503 128.87506993 -120.0233551 128.66158752 -117.46893311 128.45031738 C-113.86552459 128.15201397 -110.26280445 127.84639501 -106.66015625 127.5390625 C-105.59850754 127.45270538 -104.53685883 127.36634827 -103.44303894 127.27737427 C-91.9730665 126.28136599 -79.60347037 125.08519656 -71.34375 116.140625 C-66.49811245 109.81246944 -64.2920746 103.2738383 -63.71875 95.390625 C-61.07875 95.390625 -58.43875 95.390625 -55.71875 95.390625 C-55.60917969 94.11832031 -55.49960937 92.84601563 -55.38671875 91.53515625 C-54.24953485 78.75011783 -52.74519526 66.06584141 -50.71875 53.390625 C-50.51636719 52.11058594 -50.31398438 50.83054687 -50.10546875 49.51171875 C-48.72285402 41.78434442 -46.61712763 34.37862975 -44.28125 26.890625 C-43.8486084 25.49179077 -43.8486084 25.49179077 -43.40722656 24.06469727 C-40.38071353 14.67589802 -36.63261301 8.43448258 -28.71875 2.390625 C-28.15027344 1.95234375 -27.58179688 1.5140625 -26.99609375 1.0625 C-19.20911473 -4.16563722 -8.671632 -1.36846382 0 0 Z " fill="#313131" transform="translate(784.71875,331.609375)"/>
<path d="M0 0 C19.923573 -0.14030488 39.84704542 -0.24603696 59.7710104 -0.31087303 C69.02255733 -0.34178087 78.27379688 -0.38390237 87.52514648 -0.45263672 C95.59080928 -0.51253314 103.65624942 -0.55117148 111.72212845 -0.56453097 C115.99111857 -0.57233752 120.25947183 -0.59061955 124.52825737 -0.63438034 C128.55114356 -0.67528393 132.57313417 -0.68763375 136.59620857 -0.67864609 C138.06796775 -0.68028887 139.53975869 -0.69211897 141.01133728 -0.71523285 C149.96767971 -0.84893929 156.25862784 -0.24783412 163 6 C166.74063808 10.29536196 167.0371119 15.7146108 167.8125 21.1875 C167.97427734 22.28118896 168.13605469 23.37487793 168.30273438 24.50170898 C170.84295238 42.2281657 172.82869084 60.03494365 174.91572571 77.81900024 C175.68273344 84.34528021 176.46745155 90.86904705 177.2734375 97.390625 C177.3692511 98.16812607 177.4650647 98.94562714 177.56378174 99.74668884 C177.91856358 102.6240995 178.27339762 105.50149018 178.63378906 108.37820435 C178.87045735 110.26873732 179.10330289 112.15974769 179.3359375 114.05078125 C179.53002197 115.60792847 179.53002197 115.60792847 179.72802734 117.1965332 C179.98273034 119.82198609 180.01926657 122.36499414 180 125 C165.10704343 125.06005277 150.22608975 124.87611588 135.3359375 124.59765625 C133.0054235 124.55512688 130.67490792 124.51268388 128.34439087 124.47032166 C123.48852189 124.38160339 118.63268112 124.29149723 113.77685547 124.20043945 C107.63246566 124.08537787 101.48801081 123.97433725 95.34352684 123.86443424 C90.53688097 123.77790331 85.73028304 123.68890096 80.92369461 123.59924126 C78.66208999 123.5573859 76.40047074 123.51631156 74.13883591 123.4761219 C67.83800385 123.36352954 61.53794822 123.23400219 55.23802948 123.07820511 C52.98080721 123.02368852 50.72347321 122.97369087 48.46607208 122.92716599 C44.90474685 122.85063888 41.34441268 122.75453452 37.78369141 122.65405273 C36.14632554 122.62337629 36.14632554 122.62337629 34.47588158 122.59208012 C27.40046718 122.36554422 22.865214 121.39878382 17.3125 116.75 C11.16160694 108.76666611 11.34023201 93.7463654 10.23580933 83.90939331 C9.82873121 80.28952214 9.4006241 76.67213936 8.97265625 73.0546875 C8.88935562 72.34813522 8.80605499 71.64158295 8.7202301 70.91362 C8.06404885 65.40373168 7.29737889 59.91887036 6.4375 54.4375 C5.13853812 46.15628865 4.07482574 37.8558655 3.06103516 29.53515625 C2.2587364 22.97108843 1.36606282 16.43439681 0.33203125 9.90234375 C-0.04767469 6.58326713 -0.02087535 3.33833749 0 0 Z " fill="#323232" transform="translate(227,260)"/>
<path d="M0 0 C1.32478363 0.08344666 1.32478363 0.08344666 2.67633057 0.1685791 C14.46939227 0.92386177 26.23783685 1.86242913 38 3 C39.21171875 3.11456543 40.4234375 3.22913086 41.671875 3.34716797 C44.86851594 3.66144959 48.05903784 4.00792852 51.25 4.375 C52.11850586 4.46450928 52.98701172 4.55401855 53.88183594 4.64624023 C62.00833495 5.69165513 69.93473439 8.8563612 75.375 15.1875 C75.98085938 15.86167969 76.58671875 16.53585938 77.2109375 17.23046875 C81.92917008 24.53445762 83.90246689 32.83719895 85.6875 41.25 C85.93459717 42.39001465 86.18169434 43.5300293 86.4362793 44.70458984 C92.76586422 74.32957833 98.26139125 104.13204987 103.67480469 133.93530273 C105.50063681 143.96737002 107.36754318 153.98854181 109.34375 163.9921875 C109.53202866 164.94633041 109.72030731 165.90047333 109.91429138 166.88352966 C110.80488882 171.3868882 111.70365764 175.88843586 112.61352539 180.38793945 C112.93125115 181.98126285 113.24888361 183.57460486 113.56640625 185.16796875 C113.71279541 185.87811127 113.85918457 186.58825378 114.01000977 187.31991577 C115.99602232 197.35296035 115.99602232 197.35296035 113.93359375 200.76342773 C113.19302734 201.46640991 113.19302734 201.46640991 112.4375 202.18359375 C111.89150146 202.7154126 111.34550293 203.24723145 110.78295898 203.79516602 C110.19458252 204.33713623 109.60620605 204.87910645 109 205.4375 C108.40711182 206.005896 107.81422363 206.57429199 107.20336914 207.15991211 C103.42533086 210.7568926 99.56417423 214.26266202 95.58203125 217.6328125 C93.81404303 219.1212766 93.81404303 219.1212766 91.625 221.4375 C90 223 90 223 88 223 C87.76435333 222.34459732 87.52870667 221.68919464 87.28591919 221.01393127 C75.03264535 186.93910835 62.76742661 152.86914691 50.18652344 118.91357422 C48.67909805 114.84260827 47.18076113 110.7684345 45.68847656 106.69189453 C43.77637038 101.46897098 41.84994688 96.25153709 39.91348267 91.03759766 C39.19119617 89.08582045 38.47372175 87.13225429 37.76156616 85.17675781 C34.16127464 75.30186973 30.8097611 66.18166063 24 58 C23.38705078 57.20948242 22.77410156 56.41896484 22.14257812 55.60449219 C13.46550129 44.5767525 -0.2895774 37.32754104 -14 35 C-17.15590496 34.70982747 -20.31656909 34.53101529 -23.48046875 34.3515625 C-24.44554855 34.29445602 -25.41062836 34.23734955 -26.404953 34.17851257 C-38.56016907 33.46946378 -50.71948299 32.83277587 -62.87945557 32.21148682 C-65.61879177 32.07138919 -68.35799568 31.92903482 -71.09710693 31.78460693 C-143.01214502 27.99723895 -215.23615723 26.79928664 -287.13154602 31.53939819 C-294.10032555 31.98654256 -301.01534734 32.18538768 -308 32 C-304.55257746 29.10062084 -300.73500879 27.43312131 -296.62109375 25.70703125 C-295.90102646 25.39966537 -295.18095917 25.0922995 -294.43907166 24.77561951 C-292.10762898 23.78211243 -289.77288315 22.79670529 -287.4375 21.8125 C-285.83209232 21.13337837 -284.22678654 20.4540158 -282.62158203 19.77441406 C-280.24338255 18.76760299 -277.86501092 17.76122862 -275.4855957 16.7572937 C-271.32141876 14.99737507 -267.17788157 13.20320742 -263.05859375 11.33984375 C-262.24140869 10.97592529 -261.42422363 10.61200684 -260.58227539 10.23706055 C-259.20629164 9.62174119 -257.83579793 8.9938011 -256.47436523 8.34692383 C-243.82384686 2.77807896 -228.6191679 2.37392951 -215 1.4375 C-213.71517227 1.34702896 -213.71517227 1.34702896 -212.40438843 1.25473022 C-206.85456659 0.86725189 -201.30335469 0.50852229 -195.75042725 0.1685791 C-193.968776 0.05937819 -192.187232 -0.05159278 -190.40582275 -0.16467285 C-127.38019023 -4.15373293 -63.0251243 -3.98252302 0 0 Z " fill="#313131" transform="translate(397,174)"/>
<path d="M0 0 C-0.60624706 8.08329411 -5.11532682 13.64647471 -11.05859375 18.7734375 C-17.15305993 22.62386483 -24.27456119 22.66519456 -31.2578125 23.25390625 C-32.43842255 23.35968491 -33.61903259 23.46546356 -34.8354187 23.57444763 C-38.59804544 23.91061361 -42.361426 24.2371252 -46.125 24.5625 C-49.89556978 24.89285131 -53.66593271 25.22527798 -57.43600464 25.56126404 C-59.77953831 25.76967537 -62.12338548 25.97459722 -64.46755981 26.17567444 C-65.52901215 26.26924728 -66.59046448 26.36282013 -67.68408203 26.45922852 C-68.61640656 26.53979996 -69.54873108 26.6203714 -70.50930786 26.7033844 C-72.75537554 26.97086776 -74.8187303 27.41967131 -77 28 C-78.58272489 28.16575484 -80.16964773 28.29341042 -81.7578125 28.39453125 C-82.75264648 28.4610791 -83.74748047 28.52762695 -84.77246094 28.59619141 C-85.87879883 28.66757324 -86.98513672 28.73895508 -88.125 28.8125 C-102.67630876 29.79797484 -117.21257223 30.95419269 -131.75 32.125 C-132.89664124 32.21721832 -134.04328247 32.30943665 -135.22467041 32.40444946 C-141.81657616 32.93470462 -148.40836072 33.46644265 -155 34 C-155.65895392 39.68605341 -156.30411277 45.37354096 -156.9375 51.0625 C-157.03125916 51.90445923 -157.12501831 52.74641846 -157.22161865 53.6138916 C-158.44495011 64.70574814 -159.47560898 75.73940474 -159.67163086 86.90649414 C-159.88091586 96.3708268 -161.23176747 104.92412054 -168 112 C-170.74336767 113.77393716 -173.52445113 115.23136067 -176.45703125 116.66796875 C-179.58464738 118.30624387 -181.61634364 120.41770561 -184 123 C-193.11286351 130.36694106 -201.798419 131.2019635 -213.25 131.3125 C-214.23613281 131.34150391 -215.22226562 131.37050781 -216.23828125 131.40039062 C-226.07094802 131.4845966 -233.74126348 128.56685827 -241.47265625 122.51953125 C-243 121 -243 121 -243.9375 118.25 C-244.288125 117.5075 -244.63875 116.765 -245 116 C-247.20879012 115.28498959 -249.40152928 114.91103094 -251.6875 114.51171875 C-257.54725614 113.21504974 -261.82364762 108.9085403 -265 104 C-269.92188073 95.12853359 -270.20643266 85.31886555 -271.0625 75.4375 C-271.30571156 72.82481544 -271.5542664 70.21267273 -271.80300903 67.60050964 C-271.96773041 65.86647172 -272.13072452 64.13226881 -272.29196167 62.39790344 C-272.98856729 54.93658949 -273.83146616 47.50001876 -274.75 40.0625 C-274.94154663 38.50196899 -274.94154663 38.50196899 -275.13696289 36.90991211 C-275.42155169 34.60620282 -275.70882682 32.30288464 -276 30 C-274.27716797 29.97873047 -274.27716797 29.97873047 -272.51953125 29.95703125 C-261.24386042 29.66610117 -251.64353401 28.42902267 -242 22 C-239.7641449 21.7484436 -239.7641449 21.7484436 -237.11499023 21.74462891 C-236.1180162 21.73766998 -235.12104218 21.73071106 -234.09385681 21.72354126 C-233.00972 21.72453827 -231.92558319 21.72553528 -230.80859375 21.7265625 C-228.47590716 21.70621632 -226.14322493 21.68536477 -223.81054688 21.6640625 C-220.16296746 21.64179903 -216.51556334 21.62512814 -212.86791992 21.61914062 C-192.45712784 21.56273775 -172.90196299 19.59881882 -153 15 C-153 15.66 -153 16.32 -153 17 C-152.09628662 16.87939209 -152.09628662 16.87939209 -151.17431641 16.75634766 C-148.32480517 16.37724206 -145.47490552 16.00112966 -142.625 15.625 C-141.20574219 15.43550781 -141.20574219 15.43550781 -139.7578125 15.2421875 C-131.25774689 14.12375781 -122.74226216 13.17439611 -114.22015381 12.24310303 C-110.90151989 11.87971832 -107.58359158 11.5100472 -104.265625 11.140625 C-102.29083252 10.92120361 -100.31604004 10.70178223 -98.34124756 10.48236084 C-97.30608002 10.36734222 -97.30608002 10.36734222 -96.25 10.25 C-95.52363342 10.1692926 -94.79726685 10.08858521 -94.04888916 10.00543213 C-92.48892212 9.83210246 -90.92895508 9.65877279 -89.36898804 9.48544312 C-87.70071411 9.30007935 -86.03244019 9.11471558 -84.36416626 8.92935181 C-83.05613541 8.78401505 -83.05613541 8.78401505 -81.72167969 8.63574219 C-68.13378906 7.12597656 -54.54589844 5.61621094 -40.95800781 4.10644531 C-39.29384827 3.92148499 -39.29384827 3.92148499 -37.59606934 3.73278809 C-35.42560962 3.49169745 -33.25511875 3.25088705 -31.08459473 3.01037598 C-26.23042296 2.47220059 -21.376748 1.93049734 -16.52441406 1.37597656 C-15.27472336 1.23411423 -15.27472336 1.23411423 -13.99978638 1.08938599 C-12.47749992 0.9163351 -10.9554069 0.74156933 -9.43356323 0.56466675 C-6.25176167 0.20428005 -3.20989172 0 0 0 Z " fill="#313131" transform="translate(713,428)"/>
<path d="M0 0 C1.73228404 3.01368856 2.25783114 5.20611122 2.29052734 8.66992188 C2.30328705 9.59188354 2.31604675 10.51384521 2.32919312 11.46374512 C2.33141876 12.45539673 2.33364441 13.44704834 2.3359375 14.46875 C2.3459227 16.01568542 2.3459227 16.01568542 2.35610962 17.59387207 C2.36623488 19.77936014 2.37092668 21.96487912 2.37060547 24.15039062 C2.37494775 27.46017082 2.41118372 30.76858343 2.44921875 34.078125 C2.55838572 54.48742229 2.55838572 54.48742229 -2 64 C-2.60618164 65.37998169 -2.60618164 65.37998169 -3.22460938 66.7878418 C-7.42081589 75.9968765 -14.99144663 82.89645118 -22 90 C-22.7940625 90.82113281 -23.588125 91.64226562 -24.40625 92.48828125 C-28.18282911 96.3472857 -32.13255915 99.9509278 -36.23828125 103.45703125 C-36.81964844 103.96621094 -37.40101563 104.47539062 -38 105 C-38.79096069 105.64424927 -38.79096069 105.64424927 -39.59790039 106.30151367 C-41.46284448 108.56068415 -41.30310807 109.82111583 -41.1953125 112.71875 C-41.18757813 114.11867187 -41.18757813 114.11867187 -41.1796875 115.546875 C-41.14379688 117.4849683 -41.08465906 119.422799 -41 121.359375 C-41.0321919 133.14161035 -50.20610843 140.42791067 -58.06556702 148.31781006 C-58.89084396 149.13590149 -59.71612091 149.95399292 -60.56640625 150.796875 C-61.44473618 151.6747467 -62.3230661 152.55261841 -63.22801208 153.45709229 C-65.06849513 155.29457945 -66.91138228 157.12966156 -68.7565918 158.96240234 C-71.56423776 161.75172642 -74.36373338 164.54903524 -77.16210938 167.34765625 C-78.96306988 169.14370236 -80.76448663 170.93929114 -82.56640625 172.734375 C-83.39370743 173.56056335 -84.22100861 174.38675171 -85.07337952 175.23797607 C-89.33537944 179.46560919 -93.66191299 183.5549513 -98.22268677 187.45956421 C-101.3445429 190.16534439 -104.31471015 193.0334987 -107.3125 195.875 C-112.44140253 200.70395928 -117.68279809 205.26472894 -123.19140625 209.66015625 C-126.5823742 212.48517684 -129.78791784 215.47500419 -133 218.5 C-137.0587499 222.32209449 -141.14297037 226.0143763 -145.5 229.5 C-151.19631705 234.06041926 -156.47319066 239.01734663 -161.79296875 244.00390625 C-165.44986591 247.43086294 -169.19163743 250.74248987 -173 254 C-174.71168779 255.46723738 -176.4231521 256.934735 -178.13452148 258.40234375 C-179.37232925 259.46244243 -180.61141395 260.52105204 -181.85180664 261.578125 C-185.66800427 264.8342839 -189.41527769 268.14747984 -193.05859375 271.59765625 C-197.79276212 275.01730704 -202.37385391 276.1986077 -208.05175781 276.77148438 C-217.35093552 277.76645812 -222.12566904 280.64785395 -228.484375 287.40625 C-230.85858429 289.85419249 -233.00728627 291.40675672 -236 293 C-236.09087891 291.78763672 -236.09087891 291.78763672 -236.18359375 290.55078125 C-236.26738281 289.48214844 -236.35117187 288.41351563 -236.4375 287.3125 C-236.51871094 286.25675781 -236.59992188 285.20101563 -236.68359375 284.11328125 C-236.9045347 281.04483813 -236.9045347 281.04483813 -237.75 278.34765625 C-238 276 -238 276 -236.62890625 274.0078125 C-235.60603516 273.07582031 -235.60603516 273.07582031 -234.5625 272.125 C-233.81742187 271.43277344 -233.07234375 270.74054688 -232.3046875 270.02734375 C-229.61628063 267.66245703 -226.91587427 265.31284294 -224.19921875 262.98046875 C-221.535227 260.58145664 -219.01662372 258.05107442 -216.5 255.5 C-212.81006147 251.75968688 -209.02496306 248.21760653 -205.02734375 244.80859375 C-201.68256946 241.82471996 -198.58664843 238.59380268 -195.4375 235.40625 C-192.74716094 232.75040247 -189.93426475 230.29864568 -187.0625 227.84375 C-184.61075311 225.65203687 -182.31114427 223.33932896 -180 221 C-176.47893677 217.43599698 -172.86813992 214.09695832 -169.0625 210.84375 C-166.61075311 208.65203687 -164.31114427 206.33932896 -162 204 C-159.10408042 201.06881809 -156.19757429 198.23596826 -153.0625 195.5625 C-149.19461192 192.25721383 -145.6407893 188.67005004 -142.07104492 185.05151367 C-138.82651299 181.77995805 -135.46391322 178.73044025 -131.9609375 175.7421875 C-129.71368115 173.7456211 -127.61105073 171.63987054 -125.5 169.5 C-122.79196435 166.75499458 -120.05830751 164.1272909 -117.125 161.625 C-113.75442279 158.73785219 -110.61495793 155.65753382 -107.5 152.5 C-103.81005779 148.75969175 -100.02496304 145.21760652 -96.02734375 141.80859375 C-92.68256946 138.82471996 -89.58664843 135.59380268 -86.4375 132.40625 C-83.74716094 129.75040247 -80.93426475 127.29864568 -78.0625 124.84375 C-75.61075311 122.65203687 -73.31114427 120.33932896 -71 118 C-68.14476317 115.11010172 -65.28499804 112.31548255 -62.1875 109.6875 C-58.41946213 106.43573725 -54.81575428 103.03302201 -51.25 99.5625 C-50.69465576 99.0368042 -50.13931152 98.5111084 -49.56713867 97.96948242 C-43.67276419 92.16070164 -40.71622312 86.30818815 -40 78 C-39.84877764 76.5324361 -39.6963147 75.06499978 -39.54296875 73.59765625 C-39.23683204 70.47174583 -38.93820088 67.34523364 -38.64306641 64.21826172 C-38.3039285 60.67486988 -37.92975133 57.13614384 -37.54077148 53.59790039 C-37.38990106 52.17003689 -37.25036721 50.74092506 -37.12280273 49.31079102 C-36.29504645 40.07164948 -35.00530469 34.31632892 -28 28 C-26.92912691 26.93136323 -25.86520867 25.85573452 -24.80639648 24.77514648 C-21.09043812 20.98418871 -17.32859273 17.24105787 -13.5625 13.5 C-12.24520941 12.18773415 -10.92815014 10.87523605 -9.61132812 9.5625 C-6.4102139 6.37231494 -3.20598135 3.18529349 0 0 Z " fill="#323232" transform="translate(723,133)"/>
<path d="M0 0 C1.55690741 0.00017939 1.55690741 0.00017939 3.14526749 0.0003624 C30.76593435 0.00438752 58.32528689 0.11037098 85.90802002 1.69708252 C94.50320614 2.18877866 103.10240549 2.57432671 111.703125 2.953125 C113.2055517 3.01953397 114.70797785 3.0859555 116.21040344 3.15238953 C118.47614462 3.25247866 120.74188931 3.35248617 123.00764179 3.45231915 C135.61036122 4.00772151 148.21240817 4.57491155 160.8125 5.1875 C161.7266568 5.23144897 162.6408136 5.27539795 163.58267212 5.32067871 C165.82124392 5.43135978 168.05906152 5.55082168 170.296875 5.67578125 C171.41674805 5.73677002 172.53662109 5.79775879 173.69042969 5.8605957 C188.33853269 7.39436251 198.9662481 14.01605204 209.328125 24.07421875 C217.55181161 34.37968766 221.71046225 46.12632079 226.125 58.375 C226.81964829 60.27570105 227.51539579 62.17600067 228.2121582 64.07592773 C229.67881015 68.08010749 231.13912098 72.08651841 232.59472656 76.09472656 C234.75040571 82.02574195 236.93057111 87.94751944 239.1171875 93.8671875 C247.12447965 115.55802476 255.05359548 137.27769433 262.94766235 159.00997925 C263.89421737 161.61561165 264.84234433 164.22066346 265.7918396 166.82522583 C267.11673359 170.46008714 268.43563274 174.09710703 269.75390625 177.734375 C270.34943802 179.36526314 270.34943802 179.36526314 270.95700073 181.02909851 C271.31996246 182.03366592 271.68292419 183.03823334 272.05688477 184.07324219 C272.53171043 185.3804422 272.53171043 185.3804422 273.01612854 186.71405029 C273.8125 189.1875 273.8125 189.1875 274.8125 194.1875 C270.1925 194.1875 265.5725 194.1875 260.8125 194.1875 C260.08289063 192.08503906 259.35328125 189.98257813 258.6015625 187.81640625 C250.50705629 164.55972703 242.08635284 141.43016674 233.55326843 118.33125305 C230.65138424 110.47258515 227.76662899 102.60773391 224.88801193 94.74052429 C223.46013784 90.83971342 222.02978105 86.93981225 220.59932518 83.03994751 C219.44273666 79.88622313 218.2879685 76.73186078 217.13574219 73.57653809 C215.84835625 70.0521656 214.55560939 66.52980123 213.26171875 63.0078125 C212.88532761 61.97337006 212.50893646 60.93892761 212.12113953 59.87313843 C207.0139524 46.01432923 201.3216628 30.83092307 187.18359375 23.8984375 C184.74555038 22.91186391 182.30932642 22.01238404 179.8125 21.1875 C178.8225 20.8575 177.8325 20.5275 176.8125 20.1875 C175.08859989 20.00257023 173.35926114 19.86691134 171.62890625 19.7578125 C170.50403809 19.68618896 169.37916992 19.61456543 168.22021484 19.54077148 C166.95129395 19.46544189 165.68237305 19.3901123 164.375 19.3125 C163.37983368 19.25196945 163.37983368 19.25196945 162.36456299 19.19021606 C146.47837113 18.22609461 130.58234098 17.43062503 114.6875 16.625 C113.43695831 16.56096985 112.18641663 16.4969397 110.89797974 16.43096924 C102.20405185 15.98774465 93.50921661 15.57222171 84.8125 15.1875 C83.64659332 15.13557495 82.48068665 15.0836499 81.27944946 15.03015137 C59.98994985 14.11583167 38.71693149 14.03128085 17.41137695 14.05712891 C12.71518902 14.06279672 8.01905811 14.05944447 3.32287216 14.05369949 C-29.59256609 14.01936316 -62.43320708 14.63749667 -95.30029297 16.48974609 C-98.90693798 16.69281731 -102.51395612 16.88792303 -106.12109375 17.08203125 C-108.4687743 17.2104941 -110.8164316 17.33938291 -113.1640625 17.46875 C-114.21614899 17.526073 -115.26823547 17.583396 -116.35220337 17.64245605 C-119.29846053 17.80953128 -122.2429446 17.9928166 -125.1875 18.1875 C-126.7151297 18.28502563 -126.7151297 18.28502563 -128.27362061 18.38452148 C-129.2563092 18.45807861 -130.2389978 18.53163574 -131.25146484 18.60742188 C-132.56792496 18.70210754 -132.56792496 18.70210754 -133.91098022 18.79870605 C-136.45958129 19.07515228 -136.45958129 19.07515228 -139.1875 21.1875 C-140.51619596 27.39557928 -138.50793408 33.21778529 -136.21484375 38.91796875 C-135.90085632 39.73325043 -135.5868689 40.5485321 -135.2633667 41.38851929 C-134.23162292 44.05652602 -133.17858495 46.71555126 -132.125 49.375 C-131.3897753 51.26310166 -130.65582722 53.15170088 -129.9230957 55.04077148 C-128.05132028 59.85439997 -126.16131223 64.66060186 -124.26342773 69.46398926 C-123.2612461 72.00082547 -122.26179183 74.53871189 -121.26367188 77.07714844 C-118.87051059 83.1619487 -116.47289088 89.24494934 -114.06201172 95.32275391 C-108.72777591 108.77391531 -103.47955074 122.25782829 -98.25 135.75 C-97.85485199 136.76877228 -97.45970398 137.78754456 -97.05258179 138.83718872 C-94.79394237 144.66158576 -92.54174271 150.48841613 -90.29571533 156.31768799 C-89.14978701 159.28516081 -87.99662158 162.24976412 -86.84326172 165.21435547 C-86.10228904 167.13108826 -85.36155674 169.047914 -84.62109375 170.96484375 C-84.10108543 172.29413658 -84.10108543 172.29413658 -83.5705719 173.65028381 C-83.25651901 174.46685959 -82.94246613 175.28343536 -82.61889648 176.12475586 C-82.34142075 176.83965683 -82.06394501 177.5545578 -81.77806091 178.29112244 C-81.1875 180.1875 -81.1875 180.1875 -81.1875 183.1875 C-85.4775 183.1875 -89.7675 183.1875 -94.1875 183.1875 C-98.76590367 172.36989918 -103.04212354 161.44199827 -107.3125 150.5 C-108.10591894 148.46979306 -108.8993768 146.43960132 -109.69287109 144.40942383 C-116.21798624 127.70593974 -122.7016447 110.98643103 -129.1796875 94.26464844 C-134.18983197 81.33284889 -139.20871684 68.40450867 -144.24676514 55.48355103 C-144.95222235 53.67409226 -145.65734605 51.86450344 -146.36212158 50.05477905 C-147.32637587 47.57910615 -148.29188482 45.10392664 -149.2578125 42.62890625 C-149.5422522 41.89811859 -149.82669189 41.16733093 -150.11975098 40.41439819 C-151.54387106 36.75310629 -151.54387106 36.75310629 -153.1875 33.1875 C-154.22758207 19.0867152 -154.22758207 19.0867152 -151.6875 14.0625 C-146.92737267 8.58835357 -141.59486767 5.60349068 -134.37582397 4.92211914 C-133.29064484 4.85629639 -132.2054657 4.79047363 -131.08740234 4.72265625 C-129.85025482 4.64587646 -128.6131073 4.56909668 -127.33847046 4.48999023 C-125.98346895 4.40983307 -124.62845767 4.32984105 -123.2734375 4.25 C-121.86168951 4.1643908 -120.44995677 4.07852993 -119.03823853 3.99243164 C-116.06420525 3.81189036 -113.09002923 3.63398779 -110.11572266 3.45800781 C-106.38631165 3.23721104 -102.65727851 3.01067082 -98.92832279 2.78233051 C-89.6831677 2.21710759 -80.43641782 1.68732992 -71.1875 1.1875 C-70.09428436 1.12774994 -69.00106873 1.06799988 -67.87472534 1.00643921 C-45.27127626 -0.18057071 -22.62741188 -0.01155129 0 0 Z " fill="#353535" transform="translate(204.1875,209.8125)"/>
<path d="M0 0 C10.56 0 21.12 0 32 0 C33.61584445 19.44030247 34.28693424 38.60426925 34.27439499 58.09435081 C34.27149298 62.91723192 34.28615385 67.73997473 34.30337524 72.56282043 C34.34979146 86.25076376 34.37438142 99.93868999 34.38085938 113.62670898 C34.38461515 121.24291624 34.40265646 128.85895891 34.43595374 136.47509557 C34.45603878 141.26133436 34.45860637 146.04714534 34.44767356 150.83340871 C34.44505731 153.80465388 34.45910906 156.77565125 34.47775459 159.74683189 C34.4855595 161.7642074 34.47368357 163.78162951 34.46107483 165.79898071 C34.52720807 173.10200581 35.28284387 178.65761532 39 185 C39.38839239 185.66341495 39.77678478 186.32682989 40.17694664 187.01034832 C43.80798034 192.89703962 48.8997281 195.98451742 55.375 198.10546875 C60.87313866 199.38750338 66.4265648 199.34796747 72.04668331 199.4574213 C85.04795634 199.71600359 98.03177772 200.19101303 111.02090263 200.80310249 C134.36070078 201.89716678 157.70601846 202.72139635 181.05908203 203.46972656 C184.91282261 203.59393533 188.76646535 203.72104385 192.62011147 203.84814453 C240.99931825 205.52769628 240.99931825 205.52769628 289.39794922 206.35009766 C291.34956378 206.36713795 293.30110566 206.3949999 295.25244141 206.43212891 C310.52347423 207.2094118 310.52347423 207.2094118 324 201 C328.29191864 196.34510515 329.13627705 191.46228825 329.5625 185.3125 C329.68818359 183.54326172 329.68818359 183.54326172 329.81640625 181.73828125 C329.87699219 180.83464844 329.93757813 179.93101562 330 179 C332.97 179 335.94 179 339 179 C341.71994532 184.9334291 341.83607855 190.58011113 341 197 C337.60601842 206.13380336 330.93052951 211.27198943 322.375 215.3125 C316.4264458 217.93295975 310.40860109 218.15910904 303.98876953 218.11279297 C303.17396181 218.10957975 302.35915409 218.10636654 301.51965523 218.10305595 C289.43841538 218.01843034 277.36172731 217.62008699 265.28632879 217.25814676 C261.67630144 217.15047138 258.06618711 217.04578349 254.45608521 216.94064331 C248.35901235 216.76263396 242.26200648 216.58246176 236.16503906 216.40087891 C230.03977294 216.218469 223.91445378 216.03802124 217.7890625 215.85986328 C184.39968057 214.88862838 151.01320039 213.87895207 117.63241577 212.64151001 C101.59529298 212.05260407 85.56107879 211.65924218 69.51413155 211.47601891 C56.55619271 211.25290527 46.44683672 207.80667006 36.7734375 198.96484375 C25.08565076 186.53246828 22.32386718 174.15616506 19.8125 157.8125 C19.47449249 155.73117447 19.13430995 153.65020104 18.79199219 151.56958008 C17.97580316 146.57771622 17.18549072 141.58223941 16.40557861 136.58459473 C15.86746352 133.15539656 15.30842263 129.72999766 14.74609375 126.3046875 C13.94925386 121.4334893 13.18029399 116.55853653 12.42236328 111.68115234 C12.00163683 109.01039055 11.56407953 106.34293494 11.12109375 103.67578125 C8.66005443 88.77253097 6.50852616 73.82804586 4.375 58.875 C4.22284027 57.80910645 4.07068054 56.74321289 3.91390991 55.64501953 C3.05686099 49.63301135 2.20768364 43.61996268 1.36672974 37.60568237 C1.0340844 35.24217594 0.69389866 32.87990453 0.35131836 30.51782227 C-0.6118032 23.70080087 -1.304008 17.07373608 -1.1875 10.1875 C-1.18685547 9.41341797 -1.18621094 8.63933594 -1.18554688 7.84179688 C-1.14185892 2.28371783 -1.14185892 2.28371783 0 0 Z " fill="#343434" transform="translate(138,231)"/>
<path d="M0 0 C0 79.53 0 159.06 0 241 C-6.29491672 238.90169443 -11.63237274 236.74099412 -15.29296875 230.95703125 C-16.34940099 228.67011855 -17.203528 226.38941601 -18 224 C-18.25136719 223.30777344 -18.50273438 222.61554688 -18.76171875 221.90234375 C-21.51852432 213.63192703 -22.87960241 204.93514386 -24.51635742 196.39013672 C-24.95488587 194.22295171 -25.46513854 192.08829877 -25.9921875 189.94140625 C-27.44578269 183.47917378 -28.07169484 176.87593625 -28.80493164 170.30126953 C-29.05891676 168.03201485 -29.32282404 165.76407745 -29.58789062 163.49609375 C-34.49428273 120.7612966 -42.04763623 44.01151423 -15.08984375 7.40625 C-11.21747783 3.76518147 -5.47507467 0 0 0 Z " fill="#313131" transform="translate(849,355)"/>
<path d="M0 0 C0.03440186 0.67949707 0.06880371 1.35899414 0.10424805 2.05908203 C1.9567165 36.74763076 7.3684566 70.95100229 13.22392273 105.1605835 C13.78597822 108.44931821 14.34368796 111.7387852 14.90139771 115.02825928 C15.30235847 117.37806615 15.71129219 119.72638569 16.12084961 122.07470703 C16.36865191 123.52761386 16.61614427 124.9805736 16.86328125 126.43359375 C17.19259644 128.33709595 17.19259644 128.33709595 17.52856445 130.27905273 C18.04117388 134.32497725 18.24613538 137.92750509 18 142 C16.07368278 144.27962899 14.65101086 145.66977871 12.3125 147.375 C11.78205078 147.79910156 11.25160156 148.22320312 10.70507812 148.66015625 C7.6112922 151.06685598 4.64473169 152.62671234 1 154 C-17.04862802 108.61984409 -17.04862802 108.61984409 -25.5 86.5625 C-25.79115692 85.80269836 -26.08231384 85.04289673 -26.3822937 84.2600708 C-27.59055811 81.10652931 -28.79873421 77.95295401 -30.00666809 74.79928589 C-33.93279019 64.55574124 -37.89120707 54.3246818 -41.85375977 44.09518433 C-42.69047716 41.93455489 -43.52659359 39.77369261 -44.36206055 37.61257935 C-45.53412785 34.58097306 -46.70786782 31.55002344 -47.8828125 28.51953125 C-48.42986847 27.10771324 -48.42986847 27.10771324 -48.98797607 25.66737366 C-51.28504694 19.76466875 -53.66809622 13.91457013 -56.21826172 8.1159668 C-57 6 -57 6 -57 3 C-51.29372826 2.56558855 -45.58695732 2.13869562 -39.87963867 1.71826172 C-37.94492036 1.57473519 -36.01034379 1.42928268 -34.07592773 1.28173828 C-22.69270029 0.41495018 -11.41973393 -0.23992438 0 0 Z " fill="#313131" transform="translate(129,233)"/>
<path d="M0 0 C1.41925781 -0.01836914 1.41925781 -0.01836914 2.8671875 -0.03710938 C11.45870177 -0.05520948 11.45870177 -0.05520948 15.625 2.1875 C14.573125 2.9609375 14.573125 2.9609375 13.5 3.75 C6.88525794 9.35815087 3.10574688 14.2197822 2.25 23.0625 C2.42233388 29.07120789 5.20574505 33.50680334 9 38 C14.11989884 42.26658237 18.3448434 43.83338802 24.96484375 43.59375 C30.62375834 42.72953984 35.68253425 40.54901454 39.36328125 36.07421875 C40.57645106 34.15023395 41.65563148 32.24358165 42.625 30.1875 C46.7316205 34.2941205 46.09050352 41.07969411 46.14624023 46.60595703 C45.84369622 58.25455659 40.12244043 68.97316695 31.99609375 77.140625 C22.01207283 85.75945031 9.87676953 89.99533336 -3.3125 89.50390625 C-14.26691328 88.37213651 -25.63685381 82.90459501 -32.86328125 74.4453125 C-42.87211278 61.67970603 -44.66657299 49.07707671 -43.375 33.1875 C-41.90821969 26.11195178 -38.05257507 20.58302845 -33.375 15.1875 C-32.80007813 14.506875 -32.22515625 13.82625 -31.6328125 13.125 C-22.92882642 3.59034305 -12.53498084 0.00846958 0 0 Z " fill="#313131" transform="translate(320.375,278.8125)"/>
<path d="M0 0 C4.47833689 29.08815064 8.74842834 58.20859075 12.6875 87.375 C12.91132622 89.00783062 13.1352791 90.64064387 13.359375 92.2734375 C13.69951324 94.75561198 14.03023218 97.23818514 14.34570312 99.72363281 C14.69618187 102.48437115 15.06561395 105.24207499 15.4375 108 C15.53571045 108.82032715 15.6339209 109.6406543 15.73510742 110.48583984 C16.44147819 115.56637827 17.69723782 118.90758311 21 123 C25.74200773 126.4379556 29.76613565 127.11754617 35.52758789 127.17358398 C36.65834747 127.18714935 37.78910706 127.20071472 38.95413208 127.21469116 C40.19774506 127.22505402 41.44135803 127.23541687 42.72265625 127.24609375 C44.06070546 127.26108107 45.39874869 127.27660969 46.73678589 127.29263306 C49.64350449 127.32688016 52.55023509 127.35871376 55.45700073 127.38870239 C63.40119645 127.4715377 71.34514269 127.57395059 79.2890625 127.6796875 C80.13486563 127.69086924 80.98066875 127.70205097 81.85210228 127.71357155 C104.88336132 128.02257878 127.91021042 128.54255103 150.9375 129.0625 C153.00928745 129.10912366 155.08107497 129.15574436 157.15286255 129.20236206 C168.76866986 129.46415921 180.38438062 129.7299967 192 130 C191.234375 136.703125 191.234375 136.703125 189.125 139.375 C185.90646228 141.83623473 183.32191475 142.12391008 179.39857483 142.1068573 C178.45158187 142.10501843 177.50458891 142.10317957 176.52889919 142.10128498 C175.48819303 142.09388389 174.44748686 142.08648279 173.37524414 142.07885742 C172.27165338 142.07471171 171.16806261 142.07056601 170.0310297 142.06629467 C166.35396087 142.05022595 162.67701287 142.02578268 159 142 C157.74971386 141.99233738 156.49942772 141.98467476 155.21125412 141.97677994 C137.54324811 141.86676021 119.87598505 141.68255867 102.20886135 141.476758 C93.96328327 141.3811957 85.71781673 141.2951855 77.47192383 141.23168945 C70.20421339 141.17571523 62.93691783 141.10253137 55.66959625 141.00850838 C51.84448489 140.959579 48.01971578 140.91894254 44.19433403 140.89904213 C40.61244546 140.88011383 37.03156534 140.83798188 33.45013046 140.77834129 C31.5221387 140.75213553 29.59386472 140.75014155 27.66569519 140.74902344 C20.59289394 140.60466616 15.35282257 139.89285238 10 135 C5.21341386 129.3259505 3.86690451 123.40250368 2.75 116.1875 C2.59015625 115.26646484 2.4303125 114.34542969 2.265625 113.39648438 C1.50513768 108.8684161 0.92390653 104.37896301 0.578125 99.80078125 C0.15058185 94.65070561 -0.77888658 89.66348323 -1.77313232 84.59565735 C-3.71066178 74.55248609 -4.98227538 64.40235639 -6.375 54.27246094 C-7.80045484 43.94162545 -9.32968494 33.68456948 -11.41259766 23.46362305 C-12.47881597 17.17665746 -13.53090971 10.13791727 -10.6640625 4.26171875 C-7.52499162 -0.00476492 -5.02840995 -0.22348489 0 0 Z " fill="#343434" transform="translate(217,261)"/>
<path d="M0 0 C12.16654413 8.84839573 20.79724582 19.63312283 23.40625 34.75 C25.03603132 51.11766095 23.08036828 64.97836979 12.6171875 78.22265625 C3.34904231 88.81716144 -8.31911731 96.87866129 -22.72607422 97.90136719 C-38.19252592 98.69745797 -50.03998776 96.33245756 -62.59375 86.75 C-63.49673828 86.10998047 -63.49673828 86.10998047 -64.41796875 85.45703125 C-73.76467697 78.29472225 -80.45991363 66.23905282 -82.59375 54.75 C-84.44250547 39.37142512 -82.08535773 25.62030585 -72.53515625 13.05859375 C-54.12200496 -8.83712539 -24.9738978 -16.21681676 0 0 Z M-58.59375 10.75 C-59.274375 11.32492187 -59.955 11.89984375 -60.65625 12.4921875 C-66.9672391 18.25335558 -73.02959759 27.07666064 -73.77075195 35.84375 C-74.15264366 50.8394659 -73.59831794 61.89458699 -63.59375 73.75 C-62.97886719 74.575 -62.36398437 75.4 -61.73046875 76.25 C-56.07127181 82.87136387 -47.85503951 86.51256742 -39.59375 88.75 C-38.60375 89.08 -37.61375 89.41 -36.59375 89.75 C-22.20796815 91.02920218 -10.09596238 86.90075212 1.33203125 78.30078125 C7.25911877 73.08336718 10.23470404 65.82949309 13.40625 58.75 C13.79683594 57.945625 14.18742187 57.14125 14.58984375 56.3125 C15.69860219 52.83237782 15.6967656 49.4876411 15.65625 45.875 C15.66398437 45.19308594 15.67171875 44.51117188 15.6796875 43.80859375 C15.66178742 39.10982327 14.87457452 35.2132404 13.40625 30.75 C12.849375 31.471875 12.2925 32.19375 11.71875 32.9375 C6.91451074 38.78049369 2.83713402 42.93041385 -4.94921875 44.10546875 C-11.55174459 44.48421829 -16.38366352 42.82004711 -21.59375 38.75 C-24.03125 35.75 -24.03125 35.75 -25.59375 32.75 C-26.2125 31.574375 -26.2125 31.574375 -26.84375 30.375 C-28.48687192 24.62407328 -28.0251104 19.19329575 -25.78515625 13.70703125 C-23.49201465 9.94026422 -20.02028878 7.44176083 -16.59375 4.75 C-15.93375 4.09 -15.27375 3.43 -14.59375 2.75 C-28.61738535 -4.5999137 -47.45832384 1.09630393 -58.59375 10.75 Z " fill="#F1F1F1" transform="translate(350.59375,278.25)"/>
<path d="M0 0 C0 3.45856832 -0.55212412 4.11289228 -2.5625 6.80859375 C-3.10777344 7.54907959 -3.65304687 8.28956543 -4.21484375 9.05249023 C-4.80394531 9.83954346 -5.39304687 10.62659668 -6 11.4375 C-7.20994589 13.08214822 -8.41828303 14.72798119 -9.625 16.375 C-10.21152344 17.17421875 -10.79804687 17.9734375 -11.40234375 18.796875 C-13.96179224 22.32628564 -16.36081504 25.95067706 -18.73046875 29.60913086 C-20.38136842 32.11634229 -22.11333875 34.55002311 -23.8828125 36.97485352 C-32.34215128 48.70168366 -38.39123621 60.71032641 -44 74 C-45.2060772 76.84203373 -46.41809206 79.68076838 -47.64941406 82.51196289 C-48.40472531 84.24946415 -49.14584206 85.99323054 -49.87011719 87.74389648 C-51.8441388 92.29459025 -53.20842121 94.9805291 -58 97 C-62.57913821 98.77688395 -67.23857962 99.72529068 -72.0625 100.5625 C-73.07473633 100.75102539 -73.07473633 100.75102539 -74.10742188 100.94335938 C-87.26251243 103.2634169 -100.50678982 103.1288096 -113.8125 103.0625 C-115.5839831 103.05747152 -117.35546759 103.05291102 -119.12695312 103.04882812 C-123.41800387 103.0379372 -127.70898606 103.02074804 -132 103 C-132 102.34 -132 101.68 -132 101 C-130.48848454 99.64902626 -128.91186687 98.37072655 -127.3125 97.125 C-123.97236878 94.49725947 -120.8427042 91.91162846 -117.90234375 88.84375 C-109.89188486 80.58077665 -104.54056876 78.56962028 -93 77 C-80.75304656 73.80514258 -72.13737407 64.21611091 -63.19238281 55.79907227 C-58.90030401 51.77627506 -54.43793962 48.0503517 -49.84375 44.375 C-46.44364928 41.53535544 -43.22413555 38.53611901 -40 35.5 C-35.94123272 31.67792109 -31.85703191 27.98562553 -27.5 24.5 C-21.82227126 19.95446237 -16.56122246 15.01633778 -11.26171875 10.04296875 C-7.5895598 6.60051913 -3.82744674 3.26878215 0 0 Z " fill="#333333" transform="translate(615,339)"/>
<path d="M0 0 C11.21240124 5.38704272 19.13686311 12.83237945 23.66796875 24.65625 C24.39583674 27.048321 25.03335547 29.42810634 25.59765625 31.86328125 C25.76821533 32.4675293 25.93877441 33.07177734 26.11450195 33.69433594 C29.78618842 50.17703557 26.33874306 69.5986856 17.59765625 83.86328125 C13.77251396 89.74411226 8.20857339 93.6596422 1.59765625 95.86328125 C-3.39967939 96.23345426 -6.36173554 95.92434808 -10.40234375 92.86328125 C-10.40234375 92.53328125 -10.40234375 92.20328125 -10.40234375 91.86328125 C-9.22478516 91.69505859 -9.22478516 91.69505859 -8.0234375 91.5234375 C-2.40938544 90.46951116 1.8043252 89.50673218 5.53515625 84.98828125 C14.74131781 71.19029338 16.73534879 53.73147113 13.94921875 37.58984375 C11.63553623 26.39494637 7.19826756 16.76054555 -2.3125 9.984375 C-7.47080533 7.21720934 -12.5034184 6.50683592 -18.27734375 6.23828125 C-18.96570313 6.19960938 -19.6540625 6.1609375 -20.36328125 6.12109375 C-22.04257621 6.02779959 -23.72242142 5.94449887 -25.40234375 5.86328125 C-21.64604498 -4.03968824 -8.34350753 -2.78755533 0 0 Z " fill="#F0F0F0" transform="translate(770.40234375,419.13671875)"/>
<path d="M0 0 C3.6578218 2.03993908 5.66946174 3.50419262 8 7 C8.28258469 10.14375467 7.89447767 12.97782989 7 16 C4.53884447 18.941381 2.78491709 20.57817389 -1 21.47265625 C-5.01514651 21.76922957 -6.81900491 21.14633646 -9.9375 18.625 C-12.72694565 15.07479644 -13.5269156 12.70829124 -13.4765625 8.109375 C-12.70214964 4.68164595 -10.69105671 3.10095927 -7.93359375 1.0703125 C-5.01444671 -0.54553859 -3.25825322 -0.69324537 0 0 Z " fill="#363636" transform="translate(201,377)"/>
<path d="M0 0 C3.36297424 1.31564055 4.86786941 2.73149161 6.8671875 5.73046875 C7.82358467 10.40242661 7.52957496 13.67064881 4.9921875 17.73046875 C1.71878737 20.81131593 -0.59407725 21.06434362 -5.09375 21.0234375 C-8.26415817 20.56791908 -9.9520527 18.97731218 -12.1328125 16.73046875 C-13.90270291 13.19068792 -13.90423072 9.57470289 -13.1328125 5.73046875 C-9.90294625 0.78719784 -5.79646973 -1.31942988 0 0 Z " fill="#343434" transform="translate(437.1328125,384.26953125)"/>
</svg>
